<?xml version="1.0" encoding="UTF-8"?>
<svg id="Layer_2" data-name="Layer 2" xmlns="http://www.w3.org/2000/svg" viewBox="0 0 440.59 440.59">
  <g id="Layer_1-2" data-name="Layer 1">
    <g>
      <path d="M220.54,440.59c-6.6-.03-13.22-.28-19.74-.85-1.18-.1-2.05-1.14-1.94-2.32,.1-1.18,1.13-2.07,2.32-1.94,6.39,.56,12.92,.8,19.36,.83,1.51,0,3.02-.02,4.52-.05,1.17-.05,2.16,.91,2.19,2.09,.03,1.18-.91,2.16-2.09,2.18-1.53,.03-3.07,.05-4.61,.05Zm28.6-1.89c-1.06,0-1.98-.78-2.12-1.86-.16-1.17,.67-2.25,1.84-2.4,7.88-1.04,15.78-2.53,23.47-4.44,1.15-.27,2.31,.42,2.59,1.56,.28,1.15-.42,2.3-1.56,2.59-7.84,1.94-15.9,3.46-23.94,4.52-.1,.01-.19,.02-.28,.02Zm-72.03-2.38c-.14,0-.28-.01-.42-.04-7.94-1.6-15.88-3.66-23.59-6.12-1.12-.36-1.75-1.56-1.39-2.69,.36-1.12,1.57-1.74,2.69-1.39,7.56,2.42,15.35,4.44,23.13,6,1.16,.23,1.91,1.36,1.67,2.52-.2,1.02-1.1,1.72-2.09,1.72Zm118.79-9.19c-.87,0-1.69-.54-2.01-1.4-.41-1.11,.16-2.34,1.27-2.75,7.43-2.75,14.8-5.95,21.91-9.51,1.06-.53,2.34-.1,2.87,.95,.53,1.05,.1,2.34-.95,2.87-7.25,3.64-14.77,6.9-22.35,9.7-.24,.09-.49,.13-.74,.13Zm-164.7-5.5c-.29,0-.59-.06-.87-.19-7.38-3.31-14.67-7.07-21.65-11.18-1.02-.6-1.36-1.91-.76-2.93,.6-1.02,1.91-1.36,2.93-.76,6.85,4.03,13.99,7.72,21.23,10.96,1.08,.48,1.56,1.75,1.08,2.83-.36,.79-1.14,1.27-1.95,1.27Zm207.75-16.11c-.7,0-1.39-.34-1.8-.97-.64-.99-.36-2.31,.63-2.96,6.66-4.33,13.15-9.07,19.29-14.09,.91-.75,2.26-.61,3.01,.3,.75,.92,.61,2.26-.3,3.01-6.26,5.13-12.88,9.96-19.66,14.37-.36,.23-.76,.35-1.16,.35Zm-249.28-8.34c-.45,0-.9-.14-1.28-.43-6.48-4.85-12.77-10.12-18.67-15.65-.86-.81-.91-2.16-.1-3.02,.81-.86,2.16-.91,3.02-.1,5.79,5.42,11.95,10.59,18.31,15.35,.95,.71,1.14,2.05,.43,2.99-.42,.56-1.06,.86-1.71,.86Zm286.54-22.18c-.54,0-1.08-.2-1.5-.61-.84-.83-.86-2.18-.03-3.02,5.56-5.68,10.85-11.73,15.75-17.97,.73-.93,2.07-1.09,3-.37,.93,.73,1.09,2.07,.36,3-4.99,6.37-10.39,12.53-16.06,18.32-.42,.43-.97,.64-1.53,.64Zm-321.7-10.75c-.6,0-1.2-.25-1.63-.75-5.26-6.15-10.24-12.65-14.8-19.34-.66-.98-.41-2.31,.56-2.97,.98-.66,2.31-.41,2.97,.56,4.47,6.56,9.35,12.95,14.51,18.97,.77,.9,.66,2.25-.23,3.02-.4,.35-.9,.51-1.39,.51Zm351.42-27.18c-.38,0-.77-.1-1.12-.32-1-.62-1.31-1.94-.69-2.95,4.18-6.75,8.02-13.81,11.43-20.98,.51-1.07,1.78-1.52,2.85-1.01,1.07,.5,1.52,1.78,1.01,2.85-3.47,7.31-7.39,14.51-11.66,21.4-.4,.65-1.1,1.01-1.82,1.01Zm-378.53-12.63c-.77,0-1.51-.42-1.89-1.14-3.79-7.15-7.22-14.6-10.19-22.13-.43-1.1,.1-2.34,1.2-2.77,1.1-.44,2.34,.1,2.78,1.2,2.92,7.38,6.28,14.68,10,21.69,.55,1.04,.16,2.34-.89,2.89-.32,.17-.66,.25-1,.25Zm399.19-30.91c-.23,0-.47-.04-.7-.12-1.12-.38-1.71-1.6-1.33-2.72,2.59-7.5,4.78-15.24,6.51-22.99,.26-1.15,1.4-1.88,2.55-1.62,1.15,.26,1.88,1.4,1.62,2.55-1.77,7.91-4.01,15.8-6.64,23.45-.31,.89-1.13,1.44-2.02,1.44ZM9.71,279.63c-.94,0-1.8-.63-2.06-1.58-2.11-7.8-3.81-15.82-5.05-23.83-.18-1.17,.62-2.26,1.79-2.44,1.16-.17,2.26,.62,2.44,1.79,1.22,7.85,2.88,15.71,4.95,23.36,.31,1.14-.36,2.31-1.5,2.62-.19,.05-.38,.07-.56,.07Zm427.43-33.11c-.08,0-.16,0-.24-.01-1.17-.13-2.02-1.18-1.89-2.36,.86-7.87,1.3-15.89,1.3-23.85,0-6.34-.28-12.73-.82-19-.1-1.18,.77-2.21,1.95-2.32,1.19-.11,2.21,.77,2.32,1.94,.56,6.4,.84,12.91,.84,19.38,0,8.11-.45,16.29-1.33,24.32-.12,1.09-1.05,1.91-2.12,1.91ZM2.34,232.02c-1.14,0-2.09-.9-2.13-2.05C.07,226.76,0,223.5,0,220.29,0,215.41,.16,210.47,.48,205.62c.08-1.18,1.07-2.09,2.27-1.99,1.18,.08,2.07,1.1,1.99,2.28-.31,4.75-.47,9.59-.47,14.39,0,3.15,.07,6.34,.2,9.5,.05,1.18-.86,2.18-2.04,2.23-.03,0-.06,0-.09,0Zm3.18-48.07c-.12,0-.25-.01-.38-.03-1.16-.21-1.94-1.32-1.73-2.48,1.42-7.97,3.3-15.95,5.59-23.71,.33-1.13,1.52-1.78,2.66-1.44,1.13,.34,1.78,1.52,1.45,2.66-2.25,7.61-4.09,15.43-5.49,23.25-.18,1.04-1.09,1.76-2.1,1.76Zm428.67-4.59c-1,0-1.89-.7-2.1-1.72-1.56-7.79-3.57-15.56-5.99-23.12-.36-1.13,.26-2.33,1.39-2.69,1.13-.36,2.33,.26,2.69,1.39,2.46,7.71,4.52,15.64,6.11,23.58,.23,1.16-.52,2.29-1.68,2.52-.14,.03-.28,.04-.42,.04ZM19.18,137.75c-.28,0-.56-.06-.83-.17-1.09-.46-1.6-1.71-1.14-2.8,3.14-7.46,6.74-14.83,10.7-21.9,.58-1.03,1.88-1.4,2.91-.82,1.03,.58,1.4,1.88,.82,2.91-3.88,6.93-7.41,14.15-10.49,21.47-.34,.82-1.14,1.31-1.97,1.31Zm400.37-4.28c-.82,0-1.6-.47-1.95-1.27-3.24-7.24-6.92-14.38-10.94-21.22-.6-1.02-.26-2.33,.76-2.93,1.01-.6,2.33-.26,2.93,.76,4.1,6.98,7.86,14.26,11.16,21.65,.48,1.08,0,2.34-1.08,2.83-.28,.13-.58,.19-.87,.19ZM42.7,95.7c-.43,0-.86-.13-1.24-.4-.96-.69-1.18-2.02-.5-2.98,4.7-6.58,9.83-12.98,15.24-19.01,.79-.88,2.14-.95,3.02-.17,.88,.79,.95,2.14,.16,3.02-5.3,5.92-10.33,12.19-14.95,18.64-.42,.58-1.07,.9-1.74,.9Zm352.44-3.75c-.65,0-1.29-.3-1.72-.86-4.75-6.36-9.91-12.52-15.33-18.32-.81-.86-.76-2.22,.1-3.02,.86-.81,2.21-.76,3.02,.1,5.53,5.91,10.79,12.2,15.64,18.68,.71,.95,.51,2.29-.43,3-.38,.29-.83,.43-1.28,.43ZM74.86,59.82c-.59,0-1.17-.24-1.59-.71-.79-.88-.71-2.23,.17-3.02,6.04-5.41,12.44-10.53,19.02-15.22,.96-.69,2.3-.46,2.98,.5,.69,.96,.46,2.3-.5,2.98-6.45,4.6-12.73,9.63-18.65,14.93-.41,.37-.92,.55-1.43,.55Zm287.37-3.06c-.49,0-.99-.17-1.39-.52-6.02-5.17-12.4-10.05-18.97-14.53-.98-.67-1.23-2-.56-2.97,.67-.98,2-1.23,2.97-.56,6.69,4.56,13.2,9.55,19.34,14.82,.9,.77,1,2.12,.23,3.02-.42,.49-1.02,.75-1.62,.75ZM114.07,31.84c-.75,0-1.48-.39-1.87-1.1-.58-1.03-.21-2.33,.82-2.91,7.07-3.95,14.43-7.54,21.89-10.68,1.09-.46,2.34,.05,2.8,1.14,.46,1.09-.05,2.34-1.14,2.8-7.31,3.08-14.53,6.6-21.46,10.47-.33,.18-.69,.27-1.04,.27Zm208.36-2.23c-.34,0-.68-.08-1-.25-7.02-3.73-14.32-7.1-21.7-10.01-1.1-.43-1.64-1.68-1.2-2.78,.43-1.1,1.67-1.64,2.78-1.2,7.52,2.98,14.97,6.41,22.13,10.21,1.04,.55,1.44,1.85,.89,2.89-.38,.73-1.12,1.14-1.89,1.14ZM158.47,13.16c-.92,0-1.78-.6-2.05-1.53-.33-1.13,.31-2.32,1.45-2.66,7.76-2.29,15.74-4.17,23.71-5.58,1.15-.2,2.27,.57,2.48,1.73,.21,1.16-.57,2.27-1.73,2.48-7.81,1.38-15.64,3.22-23.25,5.47-.2,.06-.41,.09-.61,.09Zm119.15-1.27c-.19,0-.37-.03-.56-.08-7.66-2.08-15.52-3.75-23.36-4.97-1.17-.18-1.97-1.27-1.79-2.44,.18-1.17,1.28-1.95,2.44-1.79,8,1.24,16.02,2.95,23.83,5.07,1.14,.31,1.81,1.48,1.5,2.62-.26,.95-1.12,1.58-2.06,1.58Zm-71.72-7.14c-1.12,0-2.06-.87-2.13-2-.08-1.18,.82-2.2,1.99-2.27,8.05-.53,16.32-.61,24.36-.26,1.18,.05,2.1,1.05,2.04,2.23-.05,1.18-1.07,2.12-2.23,2.04-7.88-.35-15.99-.26-23.89,.25-.05,0-.1,0-.14,0Z" fill="#1e1e1e"/>
      <path d="M368.96,350.44l-1.51-1.32c31.23-35.65,48.43-81.4,48.43-128.82s-17.2-93.18-48.43-128.82l1.51-1.32c31.55,36.01,48.93,82.23,48.93,130.15s-17.38,94.13-48.93,130.15Z" fill="#1e1e1e"/>
      <path d="M71.62,350.44c-31.55-36.01-48.93-82.23-48.93-130.15s17.38-94.14,48.93-130.15l1.51,1.32c-31.23,35.65-48.43,81.39-48.43,128.82s17.2,93.17,48.43,128.82l-1.51,1.32Z" fill="#1e1e1e"/>
      <path d="M220.29,351.92c-72.58,0-131.62-59.05-131.62-131.62S147.72,88.67,220.29,88.67s131.62,59.05,131.62,131.62-59.05,131.62-131.62,131.62Zm0-258.97c-70.22,0-127.34,57.13-127.34,127.34s57.13,127.34,127.34,127.34,127.35-57.13,127.35-127.34-57.13-127.34-127.35-127.34Z" fill="#1e1e1e"/>
      <path d="M242.25,220.29c0,12.13-9.83,21.96-21.96,21.96s-21.96-9.83-21.96-21.96,9.83-21.96,21.96-21.96,21.96,9.83,21.96,21.96Z" fill="#1e1e1e"/>
      <path d="M220.29,278.19c-31.92,0-57.89-25.97-57.89-57.89s25.97-57.89,57.89-57.89,57.89,25.97,57.89,57.89-25.97,57.89-57.89,57.89Zm0-111.51c-29.56,0-53.62,24.05-53.62,53.62s24.05,53.61,53.62,53.61,53.62-24.05,53.62-53.61-24.05-53.62-53.62-53.62Z" fill="#1e1e1e"/>
      <rect x="219.29" y="116.9" width="2.01" height="206.36" fill="#1e1e1e"/>
      <rect x="117.12" y="219.07" width="206.36" height="2.01" fill="#1e1e1e"/>
    </g>
  </g>
</svg>